<?xml version="1.0" encoding="utf-8"?>
<!-- Generator: Adobe Illustrator 22.0.1, SVG Export Plug-In . SVG Version: 6.00 Build 0)  -->
<svg version="1.1" id="Layer_1" xmlns="http://www.w3.org/2000/svg" xmlns:xlink="http://www.w3.org/1999/xlink" x="0px" y="0px"
	 width="100px" height="100px" viewBox="0 0 100 100" style="enable-background:new 0 0 100 100;" xml:space="preserve">
<style type="text/css">
	.st0{fill:#FFFFFF;}
	.st1{display:none;fill:#141519;}
	.st2{fill:#9E15CC;}
</style>
<circle class="st0" cx="50" cy="50" r="50"/>
<path class="st1" d="M19.3,57.6c0.1,0.1,0.3,0.2,0.6,0.3c0.3,0.2,0.7,0.3,1.2,0.5s1,0.3,1.7,0.4s1.3,0.2,1.9,0.2
	c1,0,1.8-0.2,2.4-0.5s1.1-0.8,1.4-1.6c0.3-0.7,0.5-1.6,0.6-2.8s0.1-2.5,0.1-4.2V32.7h9.4V50c0,2.6-0.1,5-0.4,7.1
	c-0.3,2.1-0.9,3.9-1.9,5.4s-2.4,2.7-4.2,3.5s-4.3,1.2-7.4,1.2c-2.9,0-5.3-0.7-7.4-2.1C17.3,65.1,19.3,57.6,19.3,57.6z M69.3,66.8
	v-18l-5.7,12.6h-5l-5.7-12.6v18h-9.4V32.7h10.2l7.3,16l7.4-16h10.2v34.1C78.6,66.8,69.3,66.8,69.3,66.8z"/>
<path class="st2" d="M61,69.5c-9.1,0-14.4-5.8-12.7-15.6l1.9-11.1c1.6-9.2,8.3-13.7,17.2-13.7c4.2,0,8.1,1.4,10.8,3.7
	c0.5,0.3,0.5,0.8,0.2,1.2l-4.1,4.7c-0.3,0.5-0.8,0.5-1.2,0.2c-1.6-1.4-3.9-2.2-6.4-2.2c-4.4,0-7,2.7-7.7,6.7l-1.9,11.1
	c-0.8,4.4,1.2,6.9,5.5,6.9c2.5,0,5.5-0.9,7.7-2.3c0.5-0.3,0.9-0.2,1.2,0.3l2.5,5.3c0.3,0.6,0.2,0.9-0.2,1.1
	C70.9,68.1,66.5,69.5,61,69.5z"/>
<path d="M30.9,70.9c-5.5,0-9.2-1.6-13.4-5.2c-0.2-0.2-0.2-0.3-0.2-0.5l0.6-0.8c0.2-0.2,0.3-0.2,0.5-0.2c3.9,3.3,7.5,4.8,12.3,4.8
	c6.7,0,11.6-2.8,11.6-8.6c0-5-3.1-7.3-11.9-9.4c-8.3-2-12.8-5.3-12.8-11.2c0-6.6,5.9-9.5,12.8-9.5c5.2,0,9.1,1.4,12.8,4.4
	c0.2,0.2,0.2,0.3,0,0.5l-0.5,0.9c-0.2,0.2-0.3,0.2-0.5,0.2c-3.4-2.8-7.3-4.1-12-4.1c-5.8,0-10.8,2.5-10.8,8c0,5,3.9,7.5,11.4,9.2
	c9.7,2.3,13.4,5.2,13.4,11.1C44.3,67.2,38.9,70.9,30.9,70.9z"/>
</svg>
